<svg width="1000" height="1000" viewBox="0 0 1000 1000" fill="none" xmlns="http://www.w3.org/2000/svg">
<rect width="1000" height="1000" fill="#5C5252" fill-opacity="0.26"/>
<path fill-rule="evenodd" clip-rule="evenodd" d="M500.5 428.99C508.515 428.99 516.201 432.174 521.868 437.841C527.535 443.508 530.719 451.194 530.719 459.208V509.573H581.084C589.098 509.573 596.784 512.757 602.452 518.424C608.119 524.091 611.302 531.777 611.302 539.792C611.302 547.806 608.119 555.493 602.452 561.16C596.784 566.827 589.098 570.011 581.084 570.011H530.719V620.375C530.719 628.39 527.535 636.076 521.868 641.743C516.201 647.41 508.515 650.594 500.5 650.594C492.486 650.594 484.8 647.41 479.132 641.743C473.465 636.076 470.282 628.39 470.282 620.375V570.011H419.917C411.902 570.011 404.216 566.827 398.549 561.16C392.882 555.493 389.698 547.806 389.698 539.792C389.698 531.777 392.882 524.091 398.549 518.424C404.216 512.757 411.902 509.573 419.917 509.573H470.282V459.208C470.282 451.194 473.465 443.508 479.132 437.841C484.8 432.174 492.486 428.99 500.5 428.99Z" fill="white"/>
<path fill-rule="evenodd" clip-rule="evenodd" d="M410.972 862.125H590.028C715.779 862.125 778.674 862.125 823.841 832.511C843.335 819.744 860.121 803.259 873.238 783.999C903.417 739.679 903.417 677.912 903.417 554.458C903.417 431.004 903.417 369.237 873.238 324.916C860.121 305.657 843.335 289.172 823.841 276.405C794.831 257.347 758.488 250.538 702.845 248.12C676.293 248.12 653.447 228.377 648.25 202.792C644.278 184.051 633.957 167.256 619.032 155.246C604.107 143.236 585.494 136.746 566.337 136.875H434.664C394.855 136.875 360.567 164.475 352.751 202.792C347.553 228.377 324.708 248.12 298.155 248.12C242.553 250.538 206.21 257.387 177.16 276.405C157.68 289.176 140.908 305.66 127.802 324.916C97.5835 369.237 97.5835 430.964 97.5835 554.458C97.5835 677.952 97.5835 739.638 127.762 783.999C140.816 803.178 157.578 819.658 177.16 832.511C222.326 862.125 285.222 862.125 410.972 862.125ZM661.667 539.792C661.667 582.536 644.687 623.529 614.462 653.754C584.238 683.978 543.244 700.958 500.5 700.958C457.756 700.958 416.763 683.978 386.538 653.754C356.313 623.529 339.333 582.536 339.333 539.792C339.333 497.048 356.313 456.054 386.538 425.83C416.763 395.605 457.756 378.625 500.5 378.625C543.244 378.625 584.238 395.605 614.462 425.83C644.687 456.054 661.667 497.048 661.667 539.792ZM742.25 388.698C734.236 388.698 726.549 391.882 720.882 397.549C715.215 403.216 712.031 410.902 712.031 418.917C712.031 426.931 715.215 434.617 720.882 440.285C726.549 445.952 734.236 449.135 742.25 449.135H782.542C790.556 449.135 798.243 445.952 803.91 440.285C809.577 434.617 812.761 426.931 812.761 418.917C812.761 410.902 809.577 403.216 803.91 397.549C798.243 391.882 790.556 388.698 782.542 388.698H742.25Z" fill="white"/>
</svg>
