<svg width="32" height="32" viewBox="0 0 32 32" fill="none" xmlns="http://www.w3.org/2000/svg">
<path d="M29.3333 29.3333H2.66666M2.66666 14.6667L8.08399 10.3333M29.3333 14.6667L18.4987 6C17.7894 5.43266 16.9082 5.12357 16 5.12357C15.0918 5.12357 14.2106 5.43266 13.5013 6L12.4587 6.83333M20.6667 7.33333V4.66667C20.6667 4.48986 20.7369 4.32029 20.8619 4.19526C20.9869 4.07024 21.1565 4 21.3333 4H24.6667C24.8435 4 25.013 4.07024 25.1381 4.19526C25.2631 4.32029 25.3333 4.48986 25.3333 4.66667V11.3333M5.33332 29.3333V12.6667M26.6667 12.6667V18M26.6667 29.3333V23.3333" stroke="white" stroke-width="1.2973" stroke-linecap="round"/>
<path d="M20 29.3332V22.6665C20 20.7812 20 19.8385 19.4133 19.2532C18.8293 18.6665 17.8867 18.6665 16 18.6665C14.1133 18.6665 13.172 18.6665 12.5867 19.2532M12 29.3332V22.6665" stroke="white" stroke-width="1.2973" stroke-linecap="round" stroke-linejoin="round"/>
<path d="M18.6666 12.6667C18.6666 13.3739 18.3857 14.0522 17.8856 14.5523C17.3855 15.0524 16.7072 15.3333 16 15.3333C15.2927 15.3333 14.6145 15.0524 14.1144 14.5523C13.6143 14.0522 13.3333 13.3739 13.3333 12.6667C13.3333 11.9594 13.6143 11.2811 14.1144 10.781C14.6145 10.281 15.2927 10 16 10C16.7072 10 17.3855 10.281 17.8856 10.781C18.3857 11.2811 18.6666 11.9594 18.6666 12.6667Z" stroke="white" stroke-width="1.2973"/>
</svg>
