<svg width="2176" height="547" viewBox="0 0 2176 547" fill="none" xmlns="http://www.w3.org/2000/svg">
<path d="M286.494 495.997L193.434 343.776H136.268V495.997H31.2418V24.0453H202.74C303.112 24.0453 372.243 87.1938 372.243 187.566C372.243 254.038 341.001 301.234 289.818 325.828L397.503 495.997H286.494ZM136.268 254.038H192.104C234.646 254.038 265.888 238.085 265.888 187.566C265.888 137.048 234.646 120.43 192.104 120.43H136.268V254.038ZM533.869 502.644C438.149 502.644 351.736 437.501 351.736 323.834C351.736 206.843 438.814 143.695 527.886 143.695C615.629 143.695 718.661 204.849 696.725 363.053H450.779C464.738 400.277 499.303 418.889 545.169 418.889C575.746 418.889 603 411.577 628.259 392.3L674.79 440.825C646.207 476.72 597.017 502.644 533.869 502.644ZM448.785 289.269H606.323C599.011 249.385 563.781 230.109 529.216 230.109C494.65 230.109 460.085 248.056 448.785 289.269Z" fill="white"/>
<rect x="1428.5" y="153.333" width="55.9999" height="6.99998" rx="3.49999" fill="white"/>
<path d="M1393.5 209.331C1393.5 190.001 1409.17 174.331 1428.5 174.331H1484.5C1503.83 174.331 1519.5 190.001 1519.5 209.331V232.664C1519.5 241.684 1512.19 248.997 1503.17 248.997H1409.83C1400.81 248.997 1393.5 241.684 1393.5 232.664V209.331Z" fill="white"/>
<path d="M1519.5 460.665C1519.5 479.995 1503.83 495.665 1484.5 495.665H1428.5C1409.17 495.665 1393.5 479.995 1393.5 460.665V437.332C1393.5 428.311 1400.81 420.999 1409.83 420.999H1503.17C1512.19 420.999 1519.5 428.311 1519.5 437.332V460.665Z" fill="white"/>
<path d="M1393.5 279.332C1393.5 270.312 1400.81 262.999 1409.83 262.999H1503.17C1512.19 262.999 1519.5 270.312 1519.5 279.332V391.332C1519.5 400.353 1512.19 407.665 1503.17 407.665H1409.83C1400.81 407.665 1393.5 400.353 1393.5 391.332V279.332Z" fill="white"/>
<g clip-path="url(#clip0_281_28)">
<path d="M1406.03 71.3674C1404.89 71.3557 1403.78 71.7598 1402.91 72.5045C1402.04 73.2492 1401.47 74.284 1401.31 75.4165C1400.95 78.0034 1400.76 80.6124 1400.76 83.2249C1400.76 111.864 1422.95 135.302 1451.13 137.676V176.844C1451.13 178.097 1451.63 179.298 1452.52 180.184C1453.4 181.069 1454.6 181.567 1455.86 181.567C1457.11 181.567 1458.31 181.069 1459.2 180.184C1460.08 179.298 1460.58 178.097 1460.58 176.844V137.676C1488.76 135.302 1510.96 111.858 1510.96 83.2186C1510.96 80.5738 1510.77 77.971 1510.39 75.4102C1510.23 74.2788 1509.66 73.2456 1508.79 72.5022C1507.92 71.7587 1506.82 71.3555 1505.67 71.3674C1495.13 71.4563 1484.84 74.562 1476.01 80.317C1467.18 86.0721 1460.19 94.2356 1455.86 103.842C1451.52 94.2346 1444.52 86.0704 1435.7 80.3153C1426.87 74.5602 1416.57 71.4551 1406.03 71.3674Z" fill="white"/>
</g>
<g clip-path="url(#clip1_281_28)">
<path d="M938.493 27.9966L845.433 -124.224H788.267V27.9966H683.241V-443.955H854.739C955.111 -443.955 1024.24 -380.806 1024.24 -280.434C1024.24 -213.962 993 -166.766 941.817 -142.172L1049.5 27.9966H938.493ZM788.267 -213.962H844.103C886.645 -213.962 917.887 -229.915 917.887 -280.434C917.887 -330.952 886.645 -347.57 844.103 -347.57H788.267V-213.962ZM1185.87 34.6438C1090.15 34.6438 1003.73 -30.4988 1003.73 -144.166C1003.73 -261.157 1090.81 -324.305 1179.89 -324.305C1267.63 -324.305 1370.66 -263.151 1348.72 -104.947H1102.78C1116.74 -67.7231 1151.3 -49.1109 1197.17 -49.1109C1227.75 -49.1109 1255 -56.4229 1280.26 -75.6997L1326.79 -27.1752C1298.21 8.7197 1249.02 34.6438 1185.87 34.6438ZM1100.78 -178.731H1258.32C1251.01 -218.615 1215.78 -237.891 1181.21 -237.891C1146.65 -237.891 1112.08 -219.944 1100.78 -178.731ZM804.885 499.997L659.976 154.342H765.001L852.744 379.018L940.488 154.342H1045.51L900.604 499.997H804.885ZM1184.6 506.644C1094.2 506.644 1001.14 444.825 1001.14 327.169C1001.14 209.514 1094.2 147.695 1184.6 147.695C1275 147.695 1368.06 209.514 1368.06 327.169C1368.06 444.825 1275 506.644 1184.6 506.644ZM1102.84 327.169C1102.84 380.347 1140.06 413.583 1184.6 413.583C1229.14 413.583 1266.36 380.347 1266.36 327.169C1266.36 273.992 1229.14 240.756 1184.6 240.756C1140.06 240.756 1102.84 273.992 1102.84 327.169ZM1542.88 499.997V154.342H1645.92V248.068C1657.22 192.231 1690.45 147.695 1752.94 147.695C1760.91 147.695 1768.89 148.36 1777.53 151.019V248.732C1769.55 247.403 1762.24 246.738 1753.6 246.738C1685.13 246.738 1645.92 292.604 1645.92 357.746V499.997H1542.88ZM1915.28 506.644C1836.84 506.644 1750.43 447.484 1750.43 327.169C1750.43 206.855 1836.84 147.695 1915.28 147.695C1976.43 147.695 2012.33 180.931 2017.65 193.561H2019.64V154.342H2122.67V499.997H2019.64V460.778H2017.65C2012.33 473.408 1976.43 506.644 1915.28 506.644ZM1852.13 327.169C1852.13 383.006 1892.68 414.912 1936.55 414.912C1981.75 414.912 2022.3 383.671 2022.3 327.169C2022.3 270.668 1981.75 239.426 1936.55 239.426C1892.68 239.426 1852.13 271.333 1852.13 327.169Z" fill="white"/>
</g>
<defs>
<clipPath id="clip0_281_28">
<rect width="151.131" height="151.13" fill="white" transform="translate(1383.96)"/>
</clipPath>
<clipPath id="clip1_281_28">
<rect width="1532" height="424" fill="white" transform="translate(644 122.999)"/>
</clipPath>
</defs>
</svg>
