<svg width="37" height="37" viewBox="0 0 37 37" fill="none" xmlns="http://www.w3.org/2000/svg">
<path d="M10.849 25.7714V25.7865M10.849 10.6116V10.6268M26.0087 10.6116V10.6268M26.0087 21.2234H21.4608V25.7714M30.5566 21.2234V21.2386M21.4608 30.3193H26.0087M26.0087 25.7714H30.5566V30.3193M6.30106 7.57969C6.30106 7.17763 6.46077 6.79204 6.74507 6.50774C7.02937 6.22344 7.41497 6.06372 7.81703 6.06372H13.8809C14.283 6.06372 14.6686 6.22344 14.9529 6.50774C15.2372 6.79204 15.3969 7.17763 15.3969 7.57969V13.6436C15.3969 14.0456 15.2372 14.4312 14.9529 14.7155C14.6686 14.9998 14.283 15.1596 13.8809 15.1596H7.81703C7.41497 15.1596 7.02937 14.9998 6.74507 14.7155C6.46077 14.4312 6.30106 14.0456 6.30106 13.6436V7.57969ZM21.4608 7.57969C21.4608 7.17763 21.6205 6.79204 21.9048 6.50774C22.1891 6.22344 22.5747 6.06372 22.9768 6.06372H29.0406C29.4427 6.06372 29.8283 6.22344 30.1126 6.50774C30.3969 6.79204 30.5566 7.17763 30.5566 7.57969V13.6436C30.5566 14.0456 30.3969 14.4312 30.1126 14.7155C29.8283 14.9998 29.4427 15.1596 29.0406 15.1596H22.9768C22.5747 15.1596 22.1891 14.9998 21.9048 14.7155C21.6205 14.4312 21.4608 14.0456 21.4608 13.6436V7.57969ZM6.30106 22.7394C6.30106 22.3374 6.46077 21.9518 6.74507 21.6675C7.02937 21.3832 7.41497 21.2234 7.81703 21.2234H13.8809C14.283 21.2234 14.6686 21.3832 14.9529 21.6675C15.2372 21.9518 15.3969 22.3374 15.3969 22.7394V28.8033C15.3969 29.2054 15.2372 29.591 14.9529 29.8753C14.6686 30.1596 14.283 30.3193 13.8809 30.3193H7.81703C7.41497 30.3193 7.02937 30.1596 6.74507 29.8753C6.46077 29.591 6.30106 29.2054 6.30106 28.8033V22.7394Z" stroke="white" stroke-width="3.03195" stroke-linecap="round" stroke-linejoin="round"/>
</svg>
