<svg width="500" height="500" viewBox="0 0 500 500" fill="none" xmlns="http://www.w3.org/2000/svg">
<g clip-path="url(#clip0_379_27)">
<rect x="145.386" y="421.276" width="221.791" height="27.7236" rx="13.8618" fill="white"/>
<g clip-path="url(#clip1_379_27)">
<path d="M56.4071 96.6521C51.8757 96.6058 47.4816 98.2061 44.0413 101.156C40.6009 104.105 38.3483 108.203 37.7021 112.688C36.2586 122.934 35.5252 133.267 35.5073 143.614C35.5073 257.04 123.396 349.866 235.028 359.268V514.394C235.028 519.355 236.999 524.112 240.506 527.62C244.014 531.128 248.772 533.099 253.733 533.099C258.694 533.099 263.452 531.128 266.959 527.62C270.467 524.112 272.438 519.355 272.438 514.394V359.268C384.07 349.866 471.959 257.015 471.959 143.589C471.959 133.114 471.219 122.806 469.739 112.663C469.087 108.183 466.832 104.091 463.392 101.146C459.953 98.2017 455.561 96.605 451.034 96.6521C409.297 97.0041 368.534 109.304 333.569 132.097C298.603 154.89 270.899 187.222 253.733 225.267C236.566 187.218 208.857 154.884 173.887 132.09C138.917 109.297 98.1484 96.9994 56.4071 96.6521Z" fill="white"/>
</g>
</g>
<defs>
<clipPath id="clip0_379_27">
<rect width="500" height="500" fill="white"/>
</clipPath>
<clipPath id="clip1_379_27">
<rect width="598.562" height="598.555" fill="white" transform="translate(-31 -186)"/>
</clipPath>
</defs>
</svg>
