<svg width="24" height="24" viewBox="0 0 24 24" fill="none" xmlns="http://www.w3.org/2000/svg">
<path d="M19.523 21.99H4.48801C2.98501 21.99 1.82501 20.856 2.02201 19.366L2.13601 18.497C2.34301 17.297 3.44101 16.542 4.63301 16.283L11.928 15H12.072L19.367 16.283C20.579 16.563 21.657 17.276 21.864 18.497L21.978 19.377C22.175 20.867 21.015 22 19.512 22L19.523 21.99ZM17 7C17 8.32608 16.4732 9.59785 15.5355 10.5355C14.5979 11.4732 13.3261 12 12 12C10.6739 12 9.40215 11.4732 8.46447 10.5355C7.52679 9.59785 7.00001 8.32608 7.00001 7C7.00001 5.67392 7.52679 4.40215 8.46447 3.46447C9.40215 2.52678 10.6739 2 12 2C13.3261 2 14.5979 2.52678 15.5355 3.46447C16.4732 4.40215 17 5.67392 17 7Z" stroke="white" stroke-width="1.5" stroke-linecap="round" stroke-linejoin="round"/>
</svg>
